# Blender 5.2.0 LTS
# www.blender.org
o Glasses
v 0.000041 0.037542 0.007376
v 0.000041 -0.013505 0.007376
v 0.047454 -0.014239 0.007376
v 0.046825 0.037605 0.007376
v 0.000041 0.037542 0.007376
v 0.000041 -0.013505 0.007376
v -0.047377 -0.014239 0.007376
v -0.046748 0.037605 0.007376
v -0.002279 0.051704 0.039321
v -0.002279 0.050662 0.025426
v -0.002279 0.053093 0.001071
v -0.002279 0.056317 0.015206
v -0.002279 0.053601 0.023494
v -0.002279 0.058130 0.017359
v -0.002279 0.054559 0.021534
v 0.058243 0.005013 0.017062
v 0.059626 0.012736 0.017076
v 0.060087 0.019999 0.017061
v 0.058358 0.028529 0.017062
v 0.053286 0.037636 0.017096
v 0.044756 0.044668 0.020149
v 0.031845 0.049163 0.021942
v 0.019625 0.050547 0.022797
v 0.063637 0.005935 -0.001471
v 0.065173 0.014833 -0.001471
v 0.065685 0.023201 -0.001471
v 0.063765 0.033029 -0.001471
v 0.058130 0.041284 -0.001216
v 0.048654 0.047659 -0.000051
v 0.034312 0.051734 0.001071
v 0.020739 0.052988 0.001071
v 0.058900 0.004843 0.032472
v 0.060320 0.012772 0.032180
v 0.060793 0.020227 0.032300
v 0.059018 0.028983 0.032674
v 0.053811 0.038332 0.034115
v 0.045055 0.045550 0.036023
v 0.031801 0.050165 0.037816
v 0.019258 0.051585 0.039020
v 0.004895 0.054305 0.015166
v 0.005470 0.051486 0.023230
v 0.002183 0.057994 0.017449
v 0.002758 0.054321 0.021381
v -0.062801 0.005013 0.017062
v -0.064184 0.012736 0.017076
v -0.064645 0.019999 0.017061
v -0.062916 0.028529 0.017062
v -0.057844 0.037636 0.017096
v -0.049314 0.044668 0.020149
v -0.036403 0.049163 0.021942
v -0.024183 0.050547 0.022797
v -0.068194 0.005935 -0.001471
v -0.069731 0.014833 -0.001471
v -0.070243 0.023201 -0.001471
v -0.068322 0.033029 -0.001471
v -0.062688 0.041284 -0.001216
v -0.053212 0.047659 -0.000051
v -0.038870 0.051734 0.001071
v -0.025297 0.052988 0.001071
v -0.063457 0.004843 0.032472
v -0.064877 0.012772 0.032180
v -0.065351 0.020227 0.032300
v -0.063576 0.028983 0.032674
v -0.058369 0.038332 0.034115
v -0.049612 0.045550 0.036023
v -0.036359 0.050165 0.037816
v -0.023816 0.051585 0.039020
v -0.009452 0.054305 0.015166
v -0.010028 0.051486 0.023230
v -0.006740 0.057994 0.017449
v -0.007316 0.054321 0.021381
v 0.018011 -0.004414 -0.008876
v 0.015729 -0.013025 -0.002709
v 0.012953 -0.018562 -0.013985
v 0.016865 -0.012837 -0.019880
v 0.028256 -0.007277 -0.009203
v 0.030240 -0.016931 -0.002104
v 0.029093 -0.023065 -0.012586
v 0.031352 -0.016855 -0.019097
v 0.036631 -0.006566 -0.008952
v 0.042604 -0.015791 -0.000964
v 0.043960 -0.021547 -0.011216
v 0.043658 -0.015694 -0.017946
v 0.043147 -0.003015 -0.008515
v 0.052492 -0.009943 -0.000091
v 0.056060 -0.013722 -0.010150
v 0.053561 -0.009781 -0.017071
v 0.047216 0.003701 -0.007931
v 0.059078 -0.000840 0.000538
v 0.064172 -0.002997 -0.009383
v 0.060193 -0.000009 -0.016438
v 0.049900 0.011832 -0.007313
v 0.063571 0.010385 0.000959
v 0.068688 0.009438 -0.008876
v 0.064724 0.010544 -0.016013
v 0.051065 0.018899 -0.006764
v 0.063773 0.020278 0.001208
v 0.068925 0.021180 -0.008577
v 0.064930 0.020604 -0.015759
v 0.049074 0.025953 -0.005792
v 0.060986 0.030075 0.001555
v 0.065663 0.032799 -0.008411
v 0.062078 0.030622 -0.015469
v 0.044790 0.032423 -0.004328
v 0.055000 0.039021 0.002533
v 0.058633 0.043417 -0.007670
v 0.055918 0.039812 -0.014539
v 0.038012 0.037812 -0.002169
v 0.045688 0.046373 0.004560
v 0.047880 0.052074 -0.005712
v 0.046348 0.047379 -0.012523
v 0.028300 0.041589 0.000829
v 0.032671 0.051385 0.008197
v 0.032811 0.057846 -0.001625
v 0.032955 0.052527 -0.008858
v 0.014362 0.043073 0.004466
v 0.015645 0.053295 0.012968
v 0.015349 0.059985 0.003256
v 0.015690 0.054480 -0.004010
v -0.001033 0.043189 0.006228
v -0.002279 0.053431 0.015290
v -0.002279 0.060119 0.005506
v -0.002279 0.054613 -0.001678
v -0.020077 -0.004414 -0.008876
v -0.020287 -0.013025 -0.002825
v -0.017510 -0.018562 -0.014037
v -0.021423 -0.012837 -0.019987
v -0.030321 -0.007277 -0.009203
v -0.034798 -0.016931 -0.002119
v -0.033650 -0.023065 -0.012586
v -0.035910 -0.016855 -0.019097
v -0.038697 -0.006566 -0.008952
v -0.047162 -0.015791 -0.000964
v -0.048518 -0.021547 -0.011216
v -0.048215 -0.015694 -0.017946
v -0.045213 -0.003015 -0.008515
v -0.057050 -0.009943 -0.000091
v -0.060617 -0.013722 -0.010150
v -0.058119 -0.009781 -0.017071
v -0.049281 0.003701 -0.007931
v -0.063635 -0.000840 0.000538
v -0.068730 -0.002997 -0.009383
v -0.064751 -0.000009 -0.016438
v -0.051965 0.011832 -0.007313
v -0.068129 0.010385 0.000959
v -0.073246 0.009438 -0.008875
v -0.069282 0.010544 -0.016013
v -0.053130 0.018899 -0.006764
v -0.068331 0.020278 0.001208
v -0.073483 0.021180 -0.008577
v -0.069488 0.020604 -0.015759
v -0.051139 0.025953 -0.005792
v -0.065544 0.030075 0.001392
v -0.070221 0.032799 -0.008440
v -0.066636 0.030622 -0.015604
v -0.046855 0.032423 -0.004328
v -0.059557 0.039021 0.002178
v -0.063191 0.043417 -0.007996
v -0.060476 0.039812 -0.014929
v -0.040077 0.037812 -0.002169
v -0.050246 0.046373 0.004364
v -0.052438 0.052074 -0.005969
v -0.050906 0.047379 -0.012774
v -0.030365 0.041589 0.000829
v -0.037228 0.051385 0.008197
v -0.037369 0.057846 -0.001625
v -0.037513 0.052527 -0.008858
v -0.016427 0.043073 0.004466
v -0.020203 0.053295 0.012968
v -0.019907 0.059985 0.003256
v -0.020247 0.054480 -0.004010
v -0.051637 0.006832 -0.131473
v -0.051382 0.003393 -0.130969
v -0.048989 0.006352 -0.128714
v -0.064213 0.008740 -0.123601
v -0.064091 0.005320 -0.123013
v -0.061506 0.008252 -0.120879
v -0.071085 0.013142 -0.115289
v -0.071227 0.009756 -0.114650
v -0.068251 0.012630 -0.112725
v -0.079027 0.019396 -0.104426
v -0.079009 0.016036 -0.103882
v -0.075974 0.018840 -0.102463
v -0.081440 0.026858 -0.086230
v -0.081978 0.023506 -0.086382
v -0.079099 0.026238 -0.086287
v -0.082242 0.034886 -0.068492
v -0.081791 0.031512 -0.067996
v -0.078351 0.034177 -0.068761
v -0.081432 0.042835 -0.053923
v -0.081021 0.039405 -0.054146
v -0.077561 0.042014 -0.054537
v -0.079345 0.050062 -0.041570
v -0.078927 0.046541 -0.041314
v -0.075506 0.049103 -0.042246
v -0.075761 0.055915 -0.030364
v -0.075419 0.052276 -0.030342
v -0.072020 0.054807 -0.031338
v -0.070483 0.059735 -0.019787
v -0.070309 0.055983 -0.020094
v -0.066933 0.058499 -0.021135
v -0.063353 0.060843 -0.009901
v -0.063472 0.057053 -0.010612
v -0.060114 0.059566 -0.011678
v -0.054239 0.058567 -0.000800
v -0.054759 0.054879 -0.001912
v -0.051402 0.057393 -0.002980
v -0.043036 0.052272 0.007431
v -0.043982 0.048821 0.006002
v -0.040611 0.051327 0.004945
v -0.018999 0.012670 0.043139
v -0.002279 0.005915 0.038894
v -0.039339 0.000832 0.040624
v -0.042616 0.001651 0.040198
v -0.044867 0.003026 0.039928
v -0.047006 0.005546 0.039695
v -0.048518 0.009209 0.039542
v -0.049489 0.014632 0.039403
v -0.049776 0.019161 0.039272
v -0.048886 0.023553 0.039317
v -0.046271 0.028249 0.039698
v -0.041907 0.031847 0.040377
v -0.032902 0.034982 0.041739
v -0.022900 0.036114 0.042840
v -0.002279 0.051704 0.039321
v -0.026258 -0.013547 0.021294
v -0.021071 -0.011357 0.021687
v -0.016806 -0.006630 0.022157
v -0.011272 0.000978 0.023910
v -0.007007 0.005013 0.024943
v -0.002279 0.005704 0.025264
v -0.033175 -0.014700 0.020560
v -0.041936 -0.013777 0.019331
v -0.048391 -0.012164 0.017643
v -0.054616 -0.008360 0.017041
v -0.059804 -0.002250 0.017042
v -0.062801 0.005013 0.017062
v -0.027602 -0.015448 -0.001471
v -0.021839 -0.012925 -0.001471
v -0.017101 -0.007480 -0.001471
v -0.010955 0.001286 -0.001471
v -0.006217 0.005935 -0.001471
v -0.002279 0.006732 -0.001471
v -0.035285 -0.016777 -0.001471
v -0.045017 -0.015714 -0.001471
v -0.052188 -0.013855 -0.001471
v -0.059103 -0.009472 -0.001471
v -0.064865 -0.002433 -0.001471
v -0.068194 0.005935 -0.001471
v -0.025946 -0.014208 0.037277
v -0.020621 -0.011960 0.037743
v -0.016242 -0.007108 0.038487
v -0.010562 0.000702 0.038791
v -0.006184 0.004843 0.038876
v -0.033046 -0.015392 0.036557
v -0.042039 -0.014445 0.035796
v -0.048666 -0.012788 0.034959
v -0.055056 -0.008883 0.033920
v -0.060381 -0.002612 0.032692
v -0.063457 0.004843 0.032472
v -0.064877 0.012772 0.032180
v -0.065351 0.020227 0.032300
v -0.063576 0.028983 0.032674
v -0.058369 0.038332 0.034115
v -0.049612 0.045550 0.036023
v -0.036359 0.050165 0.037816
v -0.023816 0.051585 0.039020
v -0.017754 0.036143 0.043073
v -0.002279 0.012092 0.041993
v -0.009845 0.044095 0.042404
v -0.028068 -0.006891 0.040155
v -0.025112 -0.005643 0.040451
v -0.022127 -0.002335 0.040884
v -0.016270 0.005718 0.042038
v -0.010769 0.012889 0.043215
v -0.033276 -0.007759 0.039584
v -0.040719 -0.006976 0.038822
v -0.045708 -0.005728 0.038244
v -0.050074 -0.003060 0.037782
v -0.053841 0.001377 0.037393
v -0.056153 0.006978 0.037159
v -0.057353 0.013681 0.036978
v -0.057736 0.019706 0.036746
v -0.056394 0.026328 0.036952
v -0.052454 0.033402 0.037572
v -0.045845 0.038850 0.038810
v -0.034669 0.042742 0.040524
v -0.023368 0.044021 0.041696
v -0.002279 0.044088 0.042404
v -0.002279 0.024366 0.043132
v -0.009785 0.024381 0.043132
v -0.018384 0.024268 0.043132
v -0.040610 0.016444 0.040815
v -0.044509 0.015648 0.040247
v -0.047970 0.014942 0.039677
v -0.032364 0.018473 0.041815
v -0.031783 0.000508 0.041564
v -0.077613 0.042752 -0.038415
v -0.081298 0.017340 -0.036214
v -0.056691 0.041375 0.014850
v -0.066993 0.018961 0.010683
v -0.070941 0.042694 -0.005190
v -0.074273 0.043588 -0.025169
v -0.077957 0.018176 -0.022968
v -0.073829 0.019146 -0.002871
v -0.069844 0.041073 -0.104958
v -0.073528 0.015661 -0.102756
v -0.064378 0.031181 0.011337
v -0.071688 0.032158 -0.002532
v -0.062147 0.041370 -0.129136
v -0.065832 0.015958 -0.126934
v -0.044953 0.038622 -0.137109
v -0.048637 0.013210 -0.134908
v 0.051332 0.010659 -0.137407
v 0.036673 -0.003999 -0.137407
v 0.036673 0.055370 -0.137407
v 0.036673 -0.003999 -0.123083
v 0.051332 0.010659 -0.123083
v 0.036673 0.055370 -0.123083
v -0.041231 -0.003999 -0.137407
v -0.041231 0.055370 -0.137407
v -0.055889 0.010659 -0.123083
v -0.041231 -0.003999 -0.123083
v -0.041231 0.055370 -0.123083
v -0.055889 0.040712 -0.123083
v -0.002279 0.055370 -0.143823
v -0.002279 0.055370 -0.129499
v -0.002279 -0.003999 -0.143823
v -0.002279 -0.003999 -0.129499
v 0.014441 0.012670 0.043139
v 0.034781 0.000832 0.040624
v 0.038058 0.001651 0.040198
v 0.040309 0.003026 0.039928
v 0.042448 0.005546 0.039695
v 0.043960 0.009209 0.039542
v 0.044931 0.014632 0.039403
v 0.045219 0.019161 0.039272
v 0.044328 0.023553 0.039317
v 0.041713 0.028249 0.039698
v 0.037349 0.031847 0.040377
v 0.028344 0.034982 0.041739
v 0.018342 0.036114 0.042840
v 0.021700 -0.013547 0.021294
v 0.016513 -0.011357 0.021687
v 0.012248 -0.006630 0.022157
v 0.006714 0.000978 0.023910
v 0.002449 0.005013 0.024943
v 0.028617 -0.014700 0.020560
v 0.037378 -0.013777 0.019331
v 0.043833 -0.012164 0.017643
v 0.050058 -0.008360 0.017041
v 0.055246 -0.002250 0.017042
v 0.058243 0.005013 0.017062
v 0.023044 -0.015448 -0.001471
v 0.017281 -0.012925 -0.001471
v 0.012543 -0.007480 -0.001471
v 0.006397 0.001286 -0.001471
v 0.001659 0.005935 -0.001471
v 0.030727 -0.016777 -0.001471
v 0.040459 -0.015714 -0.001471
v 0.047630 -0.013855 -0.001471
v 0.054545 -0.009472 -0.001471
v 0.060307 -0.002433 -0.001471
v 0.063637 0.005935 -0.001471
v 0.021388 -0.014208 0.037277
v 0.016063 -0.011960 0.037743
v 0.011684 -0.007108 0.038487
v 0.006004 0.000702 0.038791
v 0.001626 0.004843 0.038876
v 0.028488 -0.015392 0.036557
v 0.037481 -0.014445 0.035796
v 0.044108 -0.012788 0.034959
v 0.050498 -0.008883 0.033920
v 0.055823 -0.002612 0.032692
v 0.058900 0.004843 0.032472
v 0.060320 0.012772 0.032180
v 0.060793 0.020227 0.032300
v 0.059018 0.028983 0.032674
v 0.053811 0.038332 0.034115
v 0.045055 0.045550 0.036023
v 0.031801 0.050165 0.037816
v 0.019258 0.051585 0.039020
v 0.013197 0.036143 0.043073
v 0.005288 0.044095 0.042404
v 0.023510 -0.006891 0.040155
v 0.020554 -0.005643 0.040451
v 0.017569 -0.002335 0.040884
v 0.011712 0.005718 0.042038
v 0.006211 0.012889 0.043215
v 0.028718 -0.007759 0.039584
v 0.036161 -0.006976 0.038822
v 0.041150 -0.005728 0.038244
v 0.045516 -0.003060 0.037782
v 0.049283 0.001377 0.037393
v 0.051595 0.006978 0.037159
v 0.052796 0.013681 0.036978
v 0.053178 0.019706 0.036746
v 0.051836 0.026328 0.036952
v 0.047896 0.033402 0.037572
v 0.041287 0.038850 0.038810
v 0.030111 0.042742 0.040524
v 0.018810 0.044021 0.041696
v 0.005227 0.024381 0.043132
v 0.013826 0.024268 0.043132
v 0.036052 0.016444 0.040815
v 0.039952 0.015648 0.040247
v 0.043412 0.014942 0.039677
v 0.027806 0.018473 0.041815
v 0.027226 0.000508 0.041564
v 0.073055 0.042752 -0.038415
v 0.076740 0.017340 -0.036214
v 0.051111 0.039592 0.005970
v 0.061310 0.018961 0.005623
v 0.067230 0.042694 -0.010250
v 0.069715 0.043588 -0.025169
v 0.073399 0.018176 -0.022968
v 0.070119 0.019146 -0.007932
v 0.065286 0.041073 -0.104958
v 0.068970 0.015661 -0.102756
v 0.058696 0.031181 0.006277
v 0.067977 0.032158 -0.007592
v 0.057589 0.041370 -0.129136
v 0.061274 0.015958 -0.126934
v 0.040395 0.038622 -0.137109
v 0.044080 0.013210 -0.134908
v -0.055889 0.010659 -0.137407
v -0.055889 0.040712 -0.137407
v 0.051332 0.040712 -0.137407
v 0.051332 0.040712 -0.123083
v 0.004430 -0.008389 0.041150
v -0.001790 -0.008389 0.041150
v -0.001790 -0.025681 0.041150
v 0.009931 -0.019624 0.041150
v 0.015311 -0.025459 0.041150
v 0.016477 -0.022662 0.041150
v 0.004058 -0.005900 0.047580
v 0.004058 -0.003310 0.046085
v 0.004058 -0.003310 0.043094
v 0.004058 -0.005900 0.041599
v 0.004058 -0.008490 0.043094
v 0.004058 -0.008490 0.046085
v -0.003882 -0.003310 0.046085
v -0.003882 -0.003310 0.043094
v -0.003882 -0.005900 0.041599
v -0.003882 -0.008490 0.043094
v -0.003882 -0.008490 0.046085
v -0.003882 -0.005900 0.047580
v 0.009931 -0.025681 0.041150
v 0.012494 -0.018679 0.041150
v 0.012494 -0.026626 0.041150
v 0.015311 -0.019846 0.041150
v 0.003469 -0.009350 0.047382
v 0.003469 -0.019624 0.047382
v 0.003469 -0.024721 0.047382
v 0.004430 -0.008389 0.047382
v -0.001790 -0.025681 0.047382
v 0.004430 -0.025681 0.047382
v -0.001790 -0.009350 0.047382
v 0.003469 -0.019624 0.053261
v -0.001790 -0.019624 0.053261
v 0.003469 -0.009350 0.053261
v 0.003469 -0.024721 0.053261
v -0.001790 -0.009350 0.053261
v -0.001790 -0.024721 0.053261
v 0.004430 -0.019624 0.045105
v 0.004430 -0.019624 0.041150
v 0.004430 -0.025681 0.045105
v 0.004430 -0.025681 0.041150
v 0.009931 -0.025681 0.045105
v 0.015311 -0.025459 0.045105
v 0.016477 -0.022662 0.045105
v 0.009931 -0.019624 0.045105
v 0.012494 -0.018679 0.045105
v 0.012494 -0.026626 0.045105
v 0.015311 -0.019846 0.045105
v 0.001233 -0.025681 0.046537
v 0.001233 -0.025681 0.043061
v 0.001233 -0.034831 0.043061
v 0.001233 -0.034831 0.046537
v -0.008010 -0.008389 0.041150
v -0.013526 -0.019624 0.041150
v -0.018905 -0.025459 0.041150
v -0.020072 -0.022662 0.041150
v -0.007912 -0.005900 0.047580
v -0.007912 -0.003310 0.046085
v -0.007912 -0.003310 0.043094
v -0.007912 -0.005900 0.041599
v -0.007912 -0.008490 0.043094
v -0.007912 -0.008490 0.046085
v -0.005060 -0.003310 0.046085
v -0.005060 -0.003310 0.043094
v -0.005060 -0.005900 0.041599
v -0.005060 -0.008490 0.043094
v -0.005060 -0.008490 0.046085
v -0.005060 -0.005900 0.047580
v -0.013526 -0.025681 0.041150
v -0.016089 -0.018679 0.041150
v -0.016089 -0.026626 0.041150
v -0.018905 -0.019846 0.041150
v -0.007049 -0.009350 0.047382
v -0.007049 -0.019624 0.047382
v -0.007049 -0.024721 0.047382
v -0.008010 -0.008389 0.047382
v -0.008010 -0.025681 0.047382
v -0.007049 -0.019624 0.053261
v -0.007049 -0.009350 0.053261
v -0.007049 -0.024721 0.053261
v -0.008010 -0.019624 0.045105
v -0.008010 -0.019624 0.041150
v -0.008010 -0.025681 0.045105
v -0.008010 -0.025681 0.041150
v -0.013526 -0.025681 0.045105
v -0.018905 -0.025459 0.045105
v -0.020072 -0.022662 0.045105
v -0.013526 -0.019624 0.045105
v -0.016089 -0.018679 0.045105
v -0.016089 -0.026626 0.045105
v -0.018905 -0.019846 0.045105
v -0.004813 -0.025681 0.046537
v -0.004813 -0.025681 0.043061
v -0.004813 -0.034831 0.046537
v -0.004813 -0.034831 0.043061
v -0.004813 -0.030820 0.046537
v -0.004813 -0.030820 0.043061
v -0.008095 -0.034831 0.046537
v -0.008095 -0.034831 0.043061
v -0.008095 -0.030820 0.046537
v -0.008095 -0.030820 0.043061
v -0.001790 -0.018489 0.041150
v 0.001503 -0.021782 0.041150
v -0.005083 -0.021782 0.041150
v -0.005083 -0.021782 0.038451
v -0.001790 -0.018489 0.038451
v 0.001503 -0.021782 0.038451
v -0.001790 -0.025075 0.038451
v 0.012845 -0.020286 0.045953
v 0.015381 -0.022821 0.045953
v 0.012845 -0.025356 0.045953
v 0.010310 -0.022821 0.045953
v 0.010310 -0.022821 0.038451
v 0.012845 -0.020286 0.038451
v 0.015381 -0.022821 0.038451
v 0.012845 -0.025356 0.038451
v -0.016709 -0.020286 0.045953
v -0.014174 -0.022821 0.045953
v -0.016709 -0.025356 0.045953
v -0.019244 -0.022821 0.045953
v -0.019244 -0.022821 0.038451
v -0.016709 -0.020286 0.038451
v -0.014174 -0.022821 0.038451
v -0.016709 -0.025356 0.038451
v 0.004058 0.054548 0.040721
v 0.004058 0.051943 0.039305
v -0.007912 0.054548 0.040721
v -0.007912 0.051943 0.039305
v -0.007912 0.005296 0.046271
v -0.007912 0.005296 0.043280
v 0.004058 0.005296 0.046271
v 0.004058 0.005296 0.043280
v -0.007912 0.000993 0.043280
v -0.007912 0.000993 0.046271
v 0.004058 0.000993 0.046271
v 0.004058 0.000993 0.043280
v 0.004058 0.000993 0.025916
v -0.007912 0.000993 0.025916
v 0.004058 0.000993 0.041996
v -0.007912 0.000993 0.041996
v 0.001718 0.005296 0.025916
v 0.004058 0.002956 0.025916
v -0.007912 0.002956 0.025916
v -0.005572 0.005296 0.025916
v 0.004058 0.002956 0.041996
v 0.001718 0.005296 0.041996
v -0.005572 0.005296 0.041996
v -0.007912 0.002956 0.041996
v -0.007912 0.046413 0.045667
v 0.004058 0.046413 0.045667
v 0.004058 0.045590 0.042677
v -0.007912 0.045590 0.042677
v -0.007912 0.051238 0.025051
v -0.007912 0.053777 0.025093
v 0.004058 0.053777 0.025093
v 0.004058 0.051238 0.025051
v 0.004058 0.051855 0.031771
v 0.004058 0.053867 0.030276
v -0.007912 0.051855 0.031771
v -0.007912 0.053867 0.030276
v -0.015819 0.051238 0.025051
v -0.015819 0.053777 0.025093
v 0.011965 0.053777 0.025093
v 0.011965 0.051238 0.025051
v 0.011965 0.051855 0.031771
v -0.015819 0.051855 0.031771
v -0.015819 0.053867 0.030276
v 0.011965 0.053867 0.030276
v -0.007912 0.052654 0.010538
v -0.007912 0.055193 0.010580
v 0.004058 0.055193 0.010580
v 0.004058 0.052654 0.010538
v -0.015819 0.052654 0.010538
v -0.015819 0.055193 0.010580
v 0.011965 0.055193 0.010580
v 0.011965 0.052654 0.010538
v -0.007912 0.009232 0.043925
v -0.007912 0.009312 0.046916
v 0.004058 0.009312 0.046916
v 0.004058 0.009232 0.043925
v -0.007277 -0.032107 0.045665
v -0.007394 -0.031187 0.044097
v -0.007240 -0.032747 0.043169
v -0.007123 -0.033668 0.044737
v -0.017712 -0.031155 0.046129
v -0.017514 -0.030275 0.044546
v -0.018140 -0.031736 0.043655
v -0.018338 -0.032616 0.045238
v -0.024439 -0.026242 0.047033
v -0.023933 -0.025583 0.045411
v -0.025263 -0.026537 0.044609
v -0.025768 -0.027196 0.046231
v -0.028060 -0.018137 0.048124
v -0.027404 -0.017774 0.046463
v -0.029041 -0.018122 0.045741
v -0.029696 -0.018484 0.047402
v -0.029041 -0.007627 0.049137
v -0.028355 -0.007502 0.047454
v -0.030043 -0.007445 0.046770
v -0.030729 -0.007571 0.048454
v -0.027844 0.004405 0.049794
v -0.027174 0.004344 0.048101
v -0.028842 0.004634 0.047430
v -0.029513 0.004695 0.049123
v -0.024968 0.017069 0.049817
v -0.024336 0.016837 0.048125
v -0.025974 0.017265 0.047453
v -0.026607 0.017498 0.049146
v -0.020923 0.029493 0.048929
v -0.020352 0.029069 0.047251
v -0.021964 0.029580 0.046573
v -0.022535 0.030003 0.048251
v -0.016214 0.040817 0.046843
v -0.015746 0.040144 0.045215
v -0.017341 0.040696 0.044529
v -0.017809 0.041368 0.046157
v -0.011334 0.050194 0.043251
v -0.011054 0.049166 0.041773
v -0.012648 0.049720 0.041086
v -0.012928 0.050748 0.042564
v -0.006765 0.056752 0.037779
v -0.006814 0.055266 0.036725
v -0.008435 0.055782 0.036073
v -0.008387 0.057268 0.037127
v -0.003075 0.059454 0.030075
v -0.003502 0.057698 0.029839
v -0.005173 0.058179 0.029295
v -0.004746 0.059934 0.029531
v -0.000916 0.057277 0.020062
v -0.001539 0.055685 0.020691
v -0.003242 0.056191 0.020286
v -0.002618 0.057784 0.019658
vn -0.0000 -0.0000 -1.0000
vn 0.9326 0.3575 -0.0489
vn 0.9963 0.0722 -0.0470
vn 0.9897 0.0610 0.1294
vn 0.9272 0.3456 0.1446
vn 0.7494 0.6601 -0.0521
vn 0.7521 0.6430 0.1445
vn 0.4650 0.8834 -0.0570
vn 0.4774 0.8754 0.0759
vn 0.2066 0.9765 -0.0607
vn 0.2118 0.9764 0.0422
vn 0.0512 0.9965 -0.0656
vn 0.0727 0.9967 0.0369
vn -0.0000 0.9976 -0.0689
vn -0.0528 0.9985 -0.0173
vn 0.9917 -0.1202 -0.0449
vn 0.9573 -0.2859 -0.0437
vn 0.9516 -0.2866 0.1115
vn 0.9859 -0.1208 0.1159
vn 0.7262 0.6155 0.3063
vn 0.4910 0.8400 0.2309
vn 0.2184 0.9638 0.1528
vn 0.0958 0.9914 0.0889
vn 0.2182 0.8494 0.4806
vn 0.9306 -0.2596 0.2581
vn 0.9556 -0.1085 0.2740
vn 0.9506 0.0748 0.3012
vn 0.8763 0.3522 0.3288
vn 0.1569 0.6436 0.7491
vn 0.0511 0.6353 0.7706
vn 0.1106 0.7525 0.6492
vn 0.0754 0.7525 0.6543
vn -0.0024 0.9767 -0.2145
vn 0.3720 0.9215 0.1118
vn 0.3864 0.8567 -0.3416
vn 0.0338 0.7465 0.6646
vn -0.0000 0.7340 0.6792
vn 0.1249 0.6594 -0.7414
vn -0.0000 0.5615 -0.8275
vn 0.0002 0.7539 -0.6570
vn 0.7515 0.6077 0.2568
vn -0.9326 0.3575 -0.0489
vn -0.9272 0.3456 0.1446
vn -0.9897 0.0610 0.1294
vn -0.9963 0.0722 -0.0470
vn -0.7494 0.6601 -0.0521
vn -0.7521 0.6430 0.1445
vn -0.4650 0.8834 -0.0570
vn -0.4774 0.8754 0.0759
vn -0.2066 0.9765 -0.0607
vn -0.2118 0.9764 0.0422
vn -0.0512 0.9965 -0.0656
vn -0.0727 0.9967 0.0369
vn -0.9917 -0.1202 -0.0449
vn -0.9859 -0.1208 0.1159
vn -0.9516 -0.2865 0.1115
vn -0.9573 -0.2859 -0.0437
vn -0.4910 0.8400 0.2309
vn -0.7262 0.6155 0.3063
vn -0.2184 0.9638 0.1528
vn -0.0958 0.9914 0.0889
vn -0.2182 0.8494 0.4806
vn -0.9556 -0.1085 0.2740
vn -0.9306 -0.2594 0.2582
vn -0.9506 0.0748 0.3012
vn -0.8763 0.3522 0.3288
vn -0.1106 0.7525 0.6492
vn -0.3720 0.9215 0.1118
vn 0.0024 0.9767 -0.2145
vn -0.3865 0.8567 -0.3416
vn -0.0338 0.7465 0.6646
vn -0.1249 0.6594 -0.7414
vn -0.7515 0.6077 0.2568
vn 0.2200 0.7492 -0.6248
vn 0.1226 0.7370 -0.6647
vn 0.0841 0.7300 -0.6783
vn 0.1494 0.5795 0.8012
vn -0.0025 0.5922 0.8058
vn 0.0397 0.5901 0.8064
vn -0.2601 -0.8306 0.4924
vn -0.1248 -0.8568 0.5004
vn -0.1023 -0.8595 0.5007
vn -0.1375 -0.6787 -0.7214
vn 0.0089 -0.7204 -0.6935
vn -0.0133 -0.7152 -0.6988
vn -0.1238 0.6543 -0.7460
vn -0.1608 0.6339 -0.7565
vn -0.2495 0.5354 0.8069
vn -0.2096 0.5530 0.8064
vn 0.2257 -0.8397 0.4939
vn 0.2567 -0.8321 0.4915
vn 0.3166 -0.7147 -0.6237
vn 0.2918 -0.7201 -0.6295
vn -0.3513 0.4730 -0.8080
vn -0.3689 0.4515 -0.8124
vn -0.4384 0.3707 0.8187
vn -0.4194 0.3963 0.8167
vn 0.5698 -0.6723 0.4725
vn 0.5786 -0.6648 0.4725
vn 0.5922 -0.5694 -0.5702
vn 0.5851 -0.5759 -0.5709
vn -0.4629 0.2950 -0.8359
vn -0.4659 0.2855 -0.8375
vn -0.5124 0.2057 0.8337
vn -0.5113 0.2156 0.8319
vn 0.7623 -0.4420 0.4729
vn 0.7617 -0.4431 0.4728
vn 0.7507 -0.3765 -0.5429
vn 0.7477 -0.3814 -0.5435
vn -0.5029 0.1622 -0.8490
vn -0.5056 0.1529 -0.8491
vn -0.5228 0.0698 0.8496
vn -0.5223 0.0816 0.8489
vn 0.8607 -0.1846 0.4745
vn 0.8617 -0.1801 0.4743
vn 0.8447 -0.1502 -0.5137
vn 0.8443 -0.1519 -0.5139
vn -0.5406 -0.0071 -0.8413
vn -0.5404 -0.0058 -0.8414
vn -0.5070 -0.1013 0.8560
vn -0.5081 -0.0954 0.8560
vn 0.8772 0.1014 0.4694
vn 0.8618 0.1191 -0.4930
vn 0.8612 0.1236 -0.4931
vn -0.5491 -0.1747 -0.8173
vn -0.5498 -0.1626 -0.8193
vn -0.4286 -0.2890 0.8560
vn -0.4263 -0.2923 0.8560
vn 0.8090 0.3484 0.4734
vn 0.8092 0.3480 0.4734
vn 0.7755 0.3706 -0.5112
vn 0.7664 0.3866 -0.5130
vn -0.5186 -0.3188 -0.7934
vn -0.5252 -0.2989 -0.7967
vn -0.2854 -0.4466 0.8480
vn -0.2788 -0.4521 0.8473
vn 0.6830 0.5494 0.4814
vn 0.6798 0.5531 0.4816
vn 0.5903 0.5952 -0.5452
vn 0.5601 0.6192 -0.5503
vn -0.4475 -0.4451 -0.7756
vn -0.4642 -0.4231 -0.7781
vn -0.1035 -0.5641 0.8192
vn -0.0967 -0.5673 0.8178
vn 0.5230 0.6929 0.4963
vn 0.5119 0.7003 0.4976
vn 0.3272 0.7478 -0.5777
vn 0.2730 0.7662 -0.5817
vn -0.3315 -0.5337 -0.7780
vn -0.3571 -0.5205 -0.7756
vn 0.0667 -0.6250 0.7778
vn 0.0661 -0.6248 0.7779
vn 0.3438 0.7798 0.5232
vn 0.3321 0.7833 0.5256
vn 0.0620 0.8029 -0.5929
vn 0.0100 0.8028 -0.5962
vn -0.1810 -0.5735 -0.7989
vn -0.1984 -0.5716 -0.7961
vn 0.1105 -0.6443 0.7568
vn 0.1127 -0.6438 0.7569
vn 0.1681 0.8161 0.5528
vn 0.1569 0.8173 0.5544
vn -0.0729 0.7957 -0.6014
vn -0.0726 0.7948 -0.6025
vn -0.0056 -0.5756 -0.8177
vn 0.0063 -0.5747 -0.8183
vn -0.0047 -0.6578 0.7532
vn 0.0055 -0.6571 0.7538
vn -0.0000 0.8251 0.5650
vn -0.0000 0.7946 -0.6071
vn -0.9332 0.3546 -0.0579
vn -0.2291 0.7752 -0.5887
vn -0.0747 0.7370 -0.6717
vn -0.1400 0.7560 -0.6394
vn -0.1527 0.6025 0.7833
vn -0.0565 0.5970 0.8002
vn 0.0187 0.5888 0.8081
vn 0.2622 -0.8291 0.4938
vn 0.1032 -0.8589 0.5016
vn 0.1263 -0.8560 0.5013
vn 0.1346 -0.6814 -0.7194
vn 0.0116 -0.7165 -0.6975
vn -0.0100 -0.7214 -0.6925
vn 0.1611 0.6086 -0.7770
vn 0.1066 0.6473 -0.7548
vn 0.1907 0.5288 0.8270
vn 0.2473 0.4945 0.8333
vn -0.2567 -0.8321 0.4917
vn -0.2256 -0.8397 0.4941
vn -0.2919 -0.7201 -0.6295
vn -0.3166 -0.7147 -0.6237
vn 0.3388 0.4152 -0.8443
vn 0.3152 0.4495 -0.8358
vn 0.3793 0.3596 0.8525
vn 0.4027 0.3220 0.8568
vn -0.5786 -0.6648 0.4725
vn -0.5698 -0.6723 0.4725
vn -0.5851 -0.5759 -0.5709
vn -0.5922 -0.5694 -0.5702
vn 0.4158 0.2608 -0.8713
vn 0.4124 0.2728 -0.8692
vn 0.4552 0.1856 0.8708
vn 0.4560 0.1729 0.8730
vn -0.7617 -0.4431 0.4728
vn -0.7623 -0.4420 0.4729
vn -0.7477 -0.3814 -0.5435
vn -0.7507 -0.3765 -0.5429
vn 0.4488 0.1415 -0.8824
vn 0.4461 0.1516 -0.8821
vn 0.4601 0.0658 0.8854
vn 0.4603 0.0541 0.8861
vn -0.8617 -0.1801 0.4743
vn -0.8607 -0.1846 0.4745
vn -0.8443 -0.1519 -0.5139
vn -0.8447 -0.1502 -0.5137
vn 0.4807 -0.0006 -0.8769
vn 0.4811 -0.0027 -0.8767
vn 0.4433 -0.0889 0.8919
vn 0.4428 -0.0915 0.8920
vn -0.8762 0.1026 0.4708
vn -0.8762 0.1032 0.4708
vn -0.8623 0.1219 -0.4915
vn -0.8629 0.1180 -0.4915
vn 0.4972 -0.1441 -0.8556
vn 0.4976 -0.1585 -0.8528
vn 0.3674 -0.2638 0.8919
vn 0.3738 -0.2542 0.8920
vn -0.8054 0.3524 0.4767
vn -0.8042 0.3549 0.4767
vn -0.7730 0.3796 -0.5084
vn -0.7804 0.3661 -0.5070
vn 0.4905 -0.2637 -0.8306
vn 0.4864 -0.2852 -0.8258
vn 0.2321 -0.4252 0.8748
vn 0.2482 -0.4089 0.8782
vn -0.6779 0.5547 0.4825
vn -0.6803 0.5518 0.4823
vn -0.5644 0.6176 -0.5478
vn -0.5951 0.5930 -0.5424
vn 0.4530 -0.3694 -0.8114
vn 0.4351 -0.3967 -0.8082
vn 0.0693 -0.5591 0.8262
vn 0.0896 -0.5452 0.8335
vn -0.5164 0.6982 0.4959
vn -0.5284 0.6900 0.4946
vn -0.2651 0.7690 -0.5817
vn -0.3224 0.7503 -0.5772
vn 0.3629 -0.4671 -0.8063
vn 0.3267 -0.4904 -0.8079
vn -0.0732 -0.6359 0.7683
vn -0.0605 -0.6308 0.7736
vn -0.3350 0.7825 0.5248
vn -0.3478 0.7787 0.5222
vn -0.0057 0.8029 -0.5961
vn -0.0562 0.8034 -0.5927
vn 0.2097 -0.5399 -0.8152
vn 0.1738 -0.5490 -0.8175
vn -0.1065 -0.6594 0.7442
vn -0.1095 -0.6592 0.7440
vn -0.1569 0.8173 0.5544
vn -0.1681 0.8161 0.5528
vn 0.0727 0.7948 -0.6025
vn 0.0729 0.7957 -0.6014
vn 0.9778 0.2002 -0.0626
vn 0.1606 0.9869 0.0174
vn 0.2660 0.9590 -0.0978
vn 0.2539 0.9636 -0.0843
vn -0.5411 -0.1611 -0.8254
vn -0.6597 -0.1391 -0.7386
vn -0.6870 -0.1331 -0.7143
vn 0.2886 -0.7168 0.6347
vn 0.2903 -0.7185 0.6321
vn 0.2902 -0.7184 0.6322
vn 0.3575 0.9057 -0.2278
vn 0.3576 0.9056 -0.2282
vn -0.8057 -0.0965 -0.5844
vn -0.8118 -0.0927 -0.5766
vn 0.2998 -0.7102 0.6370
vn 0.2981 -0.7123 0.6354
vn 0.3395 0.8934 -0.2942
vn 0.3364 0.8931 -0.2987
vn -0.9131 -0.0214 -0.4071
vn -0.9405 0.0049 -0.3399
vn 0.4622 -0.7197 0.5181
vn 0.4127 -0.7172 0.5615
vn 0.2325 0.8969 -0.3762
vn 0.2501 0.8959 -0.3672
vn -0.9916 0.0464 -0.1206
vn -0.9964 0.0316 -0.0785
vn 0.6074 -0.7134 0.3493
vn 0.5953 -0.7142 0.3683
vn 0.1410 0.8827 -0.4483
vn 0.1451 0.8849 -0.4425
vn -0.9985 -0.0408 0.0351
vn -0.9957 -0.0672 0.0640
vn 0.6195 -0.7101 0.3346
vn 0.6227 -0.7101 0.3285
vn 0.1132 0.8590 -0.4992
vn 0.1137 0.8606 -0.4965
vn -0.9807 -0.1182 0.1556
vn -0.9744 -0.1162 0.1923
vn 0.6066 -0.7216 0.3337
vn 0.6056 -0.7179 0.3434
vn 0.1197 0.8567 -0.5018
vn 0.1190 0.8563 -0.5026
vn -0.9569 -0.1036 0.2712
vn -0.9489 -0.0965 0.3004
vn 0.6173 -0.7472 0.2462
vn 0.6151 -0.7426 0.2650
vn 0.1442 0.8817 -0.4492
vn 0.1445 0.8821 -0.4484
vn -0.9155 -0.0834 0.3937
vn -0.9033 -0.0820 0.4210
vn 0.6097 -0.7889 0.0765
vn 0.6147 -0.7802 0.1158
vn 0.1904 0.9201 -0.3422
vn 0.1948 0.9227 -0.3328
vn -0.8497 -0.0821 0.5209
vn -0.8375 -0.0830 0.5401
vn 0.5536 -0.8147 -0.1728
vn 0.5697 -0.8134 -0.1175
vn 0.2679 0.9443 -0.1911
vn 0.2809 0.9450 -0.1675
vn -0.7645 -0.0956 0.6375
vn -0.7578 -0.0973 0.6452
vn 0.4378 -0.7770 -0.4524
vn 0.4643 -0.7902 -0.3999
vn 0.3718 0.9282 -0.0167
vn 0.3924 0.9197 0.0147
vn -0.6768 -0.1236 0.7258
vn -0.6771 -0.1234 0.7255
vn 0.2859 -0.6721 -0.6831
vn 0.3100 -0.6913 -0.6527
vn 0.4382 0.8946 0.0879
vn -0.6360 -0.1396 0.7590
vn 0.2155 -0.6113 -0.7615
vn 0.0431 -0.9981 -0.0432
vn 0.0343 -0.9992 0.0225
vn 0.2844 -0.9587 0.0080
vn 0.2891 -0.9562 -0.0452
vn -0.1634 -0.9857 -0.0408
vn -0.1745 -0.9840 0.0355
vn -0.3688 -0.9286 -0.0401
vn -0.3857 -0.9206 0.0619
vn 0.5877 -0.8091 -0.0065
vn 0.5931 -0.8038 -0.0467
vn -0.6353 -0.7712 -0.0409
vn -0.6461 -0.7588 0.0826
vn 0.7812 -0.6241 -0.0164
vn 0.7803 -0.6237 -0.0465
vn -0.8475 -0.5291 -0.0428
vn -0.8479 -0.5211 0.0971
vn 0.7563 -0.6539 -0.0230
vn 0.7519 -0.6576 -0.0477
vn -0.9592 -0.2791 -0.0454
vn -0.9549 -0.2773 0.1062
vn 0.6919 -0.7214 -0.0274
vn 0.6897 -0.7225 -0.0479
vn 0.2003 -0.9797 -0.0045
vn 0.1846 -0.9826 -0.0198
vn -0.0000 -0.9998 -0.0188
vn -0.0000 -1.0000 -0.0046
vn -0.0727 -0.1228 0.9898
vn -0.0378 -0.0623 0.9973
vn -0.0420 0.0045 0.9991
vn -0.1140 -0.0051 0.9935
vn 0.2745 -0.9595 0.0641
vn 0.5774 -0.8156 0.0358
vn -0.6560 -0.7276 0.2006
vn -0.4100 -0.8982 0.1586
vn 0.7814 -0.6240 0.0121
vn -0.8399 -0.4894 0.2347
vn 0.7566 -0.6539 0.0022
vn -0.9314 -0.2551 0.2597
vn 0.6943 -0.7197 -0.0022
vn 0.1704 -0.9848 -0.0336
vn -0.0000 -0.9994 -0.0341
vn 0.0167 -0.9956 0.0924
vn -0.1931 -0.9738 0.1204
vn -0.0019 -0.2818 0.9595
vn 0.0126 -0.3627 0.9318
vn 0.1117 -0.3190 0.9412
vn 0.0733 -0.2497 0.9655
vn 0.1996 -0.2713 0.9416
vn 0.1168 -0.2155 0.9695
vn 0.2473 -0.2923 0.9238
vn 0.1283 -0.2262 0.9656
vn 0.1850 -0.3752 0.9083
vn 0.0801 -0.1635 0.9833
vn -0.0000 -0.4350 0.9004
vn -0.0896 -0.2970 0.9507
vn -0.0806 -0.3670 0.9267
vn -0.1534 -0.2791 0.9479
vn -0.1615 -0.3513 0.9222
vn -0.2244 -0.2590 0.9394
vn -0.2575 -0.3236 0.9105
vn -0.3105 -0.2175 0.9254
vn -0.3792 -0.2729 0.8841
vn -0.3782 -0.1609 0.9116
vn -0.4695 -0.2078 0.8581
vn -0.4097 -0.0895 0.9078
vn -0.5139 -0.1212 0.8493
vn -0.4167 -0.0274 0.9086
vn -0.5242 -0.0465 0.8503
vn -0.4144 0.0233 0.9098
vn -0.5089 0.0205 0.8606
vn -0.3879 0.0811 0.9181
vn -0.4712 0.1011 0.8762
vn -0.3374 0.1302 0.9323
vn -0.4004 0.1664 0.9011
vn -0.2575 0.1775 0.9498
vn -0.2934 0.2359 0.9264
vn -0.1679 0.2160 0.9618
vn -0.1812 0.2965 0.9377
vn -0.0824 0.2432 0.9665
vn -0.0799 0.3429 0.9360
vn -0.0135 0.2164 0.9762
vn -0.0000 0.3707 0.9287
vn -0.0000 -0.2696 0.9630
vn 0.0256 0.0039 0.9997
vn -0.1370 -0.1158 0.9838
vn -0.1653 -0.1078 0.9803
vn -0.1901 -0.0888 0.9777
vn -0.2095 -0.0631 0.9758
vn -0.2219 -0.0314 0.9746
vn -0.2304 -0.0009 0.9731
vn -0.2398 0.0237 0.9705
vn -0.2340 0.0392 0.9714
vn -0.2161 0.0533 0.9749
vn -0.1844 0.0614 0.9809
vn -0.1342 0.0659 0.9888
vn -0.0882 0.0681 0.9938
vn -0.0301 0.0601 0.9977
vn -0.0000 0.2091 0.9779
vn -0.0000 -0.0053 1.0000
vn -0.1527 -0.0009 0.9883
vn -0.1383 -0.0042 0.9904
vn -0.1589 0.0033 0.9873
vn -0.9239 0.1972 0.3280
vn -0.9129 0.1932 0.3595
vn -0.8330 0.2377 0.4997
vn -0.7951 0.3018 0.5260
vn -0.9875 0.1479 0.0542
vn -0.9870 0.1484 0.0615
vn -0.9646 0.1577 0.2113
vn -0.9661 0.1519 0.2086
vn -0.9687 0.1217 -0.2162
vn -0.9712 0.1232 -0.2038
vn -0.9350 0.1526 0.3202
vn -0.8765 0.1472 0.4584
vn -0.9474 0.1113 -0.3002
vn -0.4229 -0.0172 -0.9060
vn 0.7071 -0.7071 -0.0000
vn 0.7071 0.7071 -0.0000
vn -0.7071 -0.7071 -0.0000
vn -0.7071 0.7071 -0.0000
vn -0.0000 -1.0000 -0.0000
vn 1.0000 -0.0000 -0.0000
vn -0.1273 -0.0000 -0.9919
vn -0.0000 1.0000 -0.0000
vn -0.1273 -0.0000 0.9919
vn -1.0000 -0.0000 -0.0000
vn 0.1273 -0.0000 0.9919
vn 0.1273 -0.0000 -0.9919
vn -0.0431 -0.9981 -0.0432
vn -0.2891 -0.9562 -0.0452
vn -0.2844 -0.9587 0.0080
vn -0.0343 -0.9992 0.0225
vn 0.1634 -0.9857 -0.0408
vn 0.1745 -0.9840 0.0355
vn 0.3688 -0.9286 -0.0401
vn 0.3857 -0.9206 0.0619
vn -0.5931 -0.8038 -0.0467
vn -0.5877 -0.8091 -0.0065
vn 0.6353 -0.7712 -0.0409
vn 0.6461 -0.7588 0.0826
vn -0.7803 -0.6237 -0.0465
vn -0.7812 -0.6241 -0.0164
vn 0.8475 -0.5291 -0.0428
vn 0.8479 -0.5211 0.0971
vn -0.7519 -0.6576 -0.0477
vn -0.7563 -0.6539 -0.0230
vn 0.9592 -0.2791 -0.0443
vn 0.9548 -0.2777 0.1062
vn -0.6897 -0.7225 -0.0479
vn -0.6919 -0.7214 -0.0274
vn -0.2003 -0.9797 -0.0045
vn -0.1846 -0.9826 -0.0198
vn 0.0727 -0.1228 0.9898
vn 0.1140 -0.0051 0.9935
vn 0.0420 0.0045 0.9991
vn 0.0378 -0.0623 0.9973
vn -0.5774 -0.8156 0.0358
vn -0.2745 -0.9595 0.0641
vn 0.4100 -0.8982 0.1586
vn 0.6560 -0.7276 0.2006
vn -0.7814 -0.6240 0.0121
vn 0.8399 -0.4894 0.2347
vn -0.7566 -0.6539 0.0022
vn 0.9314 -0.2551 0.2597
vn -0.6943 -0.7197 -0.0022
vn -0.1704 -0.9848 -0.0336
vn -0.0167 -0.9956 0.0924
vn 0.1931 -0.9738 0.1204
vn 0.0019 -0.2818 0.9595
vn -0.0733 -0.2497 0.9655
vn -0.1117 -0.3190 0.9412
vn -0.0126 -0.3627 0.9318
vn -0.1168 -0.2155 0.9695
vn -0.1996 -0.2713 0.9416
vn -0.1283 -0.2262 0.9656
vn -0.2473 -0.2923 0.9238
vn -0.0801 -0.1635 0.9833
vn -0.1850 -0.3752 0.9083
vn 0.0896 -0.2970 0.9507
vn 0.0806 -0.3669 0.9267
vn 0.1534 -0.2791 0.9479
vn 0.1615 -0.3513 0.9222
vn 0.2244 -0.2590 0.9394
vn 0.2575 -0.3236 0.9105
vn 0.3105 -0.2175 0.9254
vn 0.3792 -0.2729 0.8841
vn 0.3782 -0.1609 0.9116
vn 0.4695 -0.2078 0.8581
vn 0.4097 -0.0895 0.9078
vn 0.5139 -0.1212 0.8493
vn 0.4167 -0.0274 0.9086
vn 0.5242 -0.0465 0.8503
vn 0.4144 0.0233 0.9098
vn 0.5089 0.0205 0.8606
vn 0.3879 0.0811 0.9181
vn 0.4712 0.1011 0.8762
vn 0.3374 0.1302 0.9323
vn 0.4004 0.1664 0.9011
vn 0.2575 0.1775 0.9498
vn 0.2934 0.2359 0.9264
vn 0.1679 0.2160 0.9618
vn 0.1812 0.2965 0.9377
vn 0.0824 0.2432 0.9665
vn 0.0799 0.3429 0.9360
vn 0.0135 0.2164 0.9762
vn -0.0256 0.0039 0.9997
vn 0.1370 -0.1158 0.9838
vn 0.1653 -0.1078 0.9803
vn 0.1901 -0.0888 0.9777
vn 0.2095 -0.0631 0.9758
vn 0.2219 -0.0314 0.9746
vn 0.2304 -0.0009 0.9731
vn 0.2398 0.0237 0.9705
vn 0.2340 0.0392 0.9714
vn 0.2161 0.0533 0.9749
vn 0.1844 0.0614 0.9809
vn 0.1342 0.0659 0.9888
vn 0.0882 0.0681 0.9938
vn 0.0301 0.0601 0.9977
vn 0.1383 -0.0042 0.9904
vn 0.1527 -0.0009 0.9883
vn 0.1589 0.0033 0.9873
vn 0.6751 0.3944 0.6234
vn 0.7495 0.2835 0.5982
vn 0.8791 0.2209 0.4224
vn 0.9875 0.1479 0.0542
vn 0.9659 0.1506 0.2108
vn 0.9636 0.1576 0.2158
vn 0.9870 0.1484 0.0615
vn 0.9712 0.1232 -0.2038
vn 0.9687 0.1217 -0.2162
vn 0.9174 0.1472 0.3698
vn 0.9791 0.1122 0.1698
vn 0.8246 0.1338 0.5496
vn 0.9474 0.1113 -0.3002
vn 0.4229 -0.0172 -0.9060
vn 0.3827 0.9239 -0.0000
vn 0.9415 0.2526 -0.2232
vn 0.9415 0.2526 0.2232
vn -0.9415 0.2526 0.2232
vn -0.9415 0.2526 -0.2232
vn -0.0000 0.5000 0.8660
vn 0.1792 0.7180 0.6726
vn -0.1792 0.7180 0.6726
vn 0.1792 0.7180 -0.6726
vn -0.0000 0.5000 -0.8660
vn -0.1792 0.7180 -0.6726
vn -0.0000 -0.5000 -0.8660
vn -0.0000 -0.5000 0.8660
vn -0.0768 0.9941 0.0766
vn -0.0000 0.9970 0.0768
vn -0.0000 -0.0000 1.0000
vn -0.0000 -0.9967 0.0814
vn 0.0907 -0.9926 0.0811
vn -0.1757 0.9844 -0.0000
vn -0.1755 -0.9845 -0.0000
vn 0.9921 0.0183 0.1242
vn 0.9969 -0.0156 0.0768
vn 0.9895 0.0306 0.1412
vn 0.9755 0.0774 0.2057
vn 0.9229 -0.3850 -0.0000
vn 0.3826 -0.9239 -0.0000
vn -0.3460 0.9382 -0.0000
vn 0.9239 0.3827 -0.0000
vn -0.3456 -0.9384 -0.0000
vn -0.3827 0.9239 -0.0000
vn 0.0768 0.9941 0.0766
vn -0.0907 -0.9926 0.0811
vn 0.1757 0.9844 -0.0000
vn 0.1755 -0.9845 -0.0000
vn -0.9921 0.0183 0.1242
vn -0.9895 0.0306 0.1412
vn -0.9969 -0.0156 0.0768
vn -0.9755 0.0774 0.2058
vn -0.9229 -0.3850 -0.0000
vn -0.3827 -0.9239 -0.0000
vn 0.3460 0.9382 -0.0000
vn -0.9239 0.3827 -0.0000
vn 0.3456 -0.9384 -0.0000
vn -0.7354 -0.6734 -0.0756
vn 0.7354 -0.6734 -0.0756
vn -0.0000 0.9998 -0.0174
vn -0.0000 0.5195 0.8545
vn -0.0000 -0.4688 -0.8833
vn -0.0000 -0.0433 0.9991
vn -0.0000 0.0433 -0.9991
vn 0.4337 0.4336 -0.7899
vn -0.4337 0.4336 -0.7899
vn -0.0000 -0.0343 -0.9994
vn -0.0000 0.0336 0.9994
vn -0.0000 0.0166 -0.9999
vn -0.0000 -0.9958 0.0915
vn -0.0000 0.9979 -0.0651
vn -0.0000 -0.9999 0.0117
vn -0.0000 0.9953 0.0971
vn -0.0000 0.5966 0.8026
vn -0.0000 -0.9953 -0.0971
vn -0.0000 -0.1585 0.9874
vn -0.0000 0.1617 -0.9868
vn -0.0094 -0.5146 0.8574
vn -0.1088 -0.4818 0.8695
vn 0.1002 0.8627 0.4957
vn 0.3431 0.8010 0.4906
vn 0.3432 0.8009 0.4906
vn 0.0090 0.5146 -0.8574
vn 0.1085 0.4818 -0.8695
vn 0.1085 0.4819 -0.8695
vn -0.1026 -0.8625 -0.4956
vn -0.3438 -0.8008 -0.4905
vn -0.3439 -0.8007 -0.4905
vn -0.2758 -0.3610 0.8908
vn -0.2759 -0.3610 0.8908
vn 0.7298 0.5221 0.4414
vn 0.7297 0.5221 0.4414
vn 0.2759 0.3608 -0.8909
vn 0.2760 0.3608 -0.8909
vn -0.7285 -0.5237 -0.4416
vn -0.7285 -0.5238 -0.4416
vn -0.3603 -0.1996 0.9112
vn 0.8989 0.1899 0.3949
vn 0.8989 0.1900 0.3949
vn 0.3604 0.1992 -0.9113
vn -0.8983 -0.1921 -0.3952
vn -0.8983 -0.1922 -0.3952
vn -0.3767 -0.0687 0.9238
vn 0.9267 -0.0314 0.3744
vn 0.3767 0.0686 -0.9238
vn -0.9267 0.0306 -0.3745
vn -0.3680 0.0334 0.9292
vn 0.9160 -0.1596 0.3681
vn 0.9160 -0.1595 0.3681
vn 0.3680 -0.0334 -0.9292
vn -0.9160 0.1593 -0.3681
vn -0.3473 0.1277 0.9290
vn 0.8994 -0.2353 0.3685
vn 0.3473 -0.1276 -0.9290
vn -0.8994 0.2352 -0.3684
vn -0.3135 0.2326 0.9207
vn 0.8849 -0.2801 0.3721
vn 0.3135 -0.2324 -0.9207
vn -0.8849 0.2801 -0.3721
vn -0.2565 0.3693 0.8932
vn 0.8755 -0.3027 0.3768
vn 0.2567 -0.3687 -0.8934
vn -0.8755 0.3027 -0.3768
vn -0.1527 0.5652 0.8107
vn -0.1526 0.5653 0.8107
vn 0.8749 -0.3035 0.3775
vn 0.1537 -0.5634 -0.8118
vn 0.1537 -0.5634 -0.8117
vn -0.8748 0.3035 -0.3775
vn 0.0273 0.8159 0.5776
vn 0.0273 0.8159 0.5775
vn 0.8900 -0.2829 0.3575
vn -0.0260 -0.8144 -0.5797
vn -0.0261 -0.8145 -0.5796
vn -0.8900 0.2830 -0.3576
vn 0.1361 0.9126 0.3855
vn 0.9169 -0.2650 0.2984
vn -0.1353 -0.9119 -0.3874
vn -0.9169 0.2650 -0.2984
vn 0.3136 0.9396 -0.1369
vn 0.9301 -0.2619 0.2574
vn -0.3142 -0.9391 0.1396
vn -0.9301 0.2619 -0.2573
vt -0.001503 0.078784
vt 0.341765 0.088955
vt 0.341765 0.796278
vt 0.003052 0.797153
vt 0.685096 0.078784
vt 0.680541 0.797153
vt 0.341795 0.796278
vt 0.341795 0.088955
vt 0.405264 0.696072
vt 0.406449 0.637353
vt 0.499903 0.681654
vt 0.500319 0.741497
vt 0.361233 0.763759
vt 0.464594 0.810140
vt 0.288783 0.823032
vt 0.412569 0.853986
vt 0.184974 0.873212
vt 0.308514 0.899451
vt 0.091031 0.901646
vt 0.168937 0.940199
vt 0.011333 0.928139
vt 0.001378 0.994584
vt 0.395111 0.593381
vt 0.361521 0.562724
vt 0.454516 0.594703
vt 0.486790 0.638312
vt 0.539320 0.881587
vt 0.468242 0.935887
vt 0.363702 0.982904
vt 0.271112 1.012515
vt 0.071351 0.968584
vt 0.572315 0.649864
vt 0.585043 0.701749
vt 0.590572 0.753171
vt 0.579028 0.819174
vt 0.018368 0.994173
vt 0.087523 0.997592
vt 0.043777 0.977916
vt 0.108466 0.997496
vt 0.106472 0.967362
vt 0.091261 0.997263
vt 0.095877 0.995785
vt 0.087992 0.998051
vt 0.969096 0.961830
vt 0.969096 0.919560
vt 0.886539 0.919560
vt 0.886539 0.961830
vt 0.721426 0.961830
vt 0.721426 0.919560
vt 0.638869 0.919560
vt 0.638869 0.961830
vt 0.796641 0.964154
vt 0.803982 0.919560
vt 0.969096 0.877289
vt 0.886539 0.877289
vt 0.721426 0.877289
vt 0.638869 0.877289
vt 0.803982 0.877289
vt 0.969096 0.835019
vt 0.886539 0.835019
vt 0.721426 0.835019
vt 0.638869 0.835019
vt 0.803982 0.835019
vt 0.969096 0.792748
vt 0.886539 0.792748
vt 0.721426 0.792748
vt 0.638869 0.792748
vt 0.803982 0.792748
vt 0.969096 0.998187
vt 0.886539 0.998187
vt 0.721426 0.998187
vt 0.638869 0.998187
vt 0.803982 0.998187
vt 0.969096 0.952116
vt 0.886539 0.952116
vt 0.721426 0.952116
vt 0.638869 0.952116
vt 0.803982 0.924791
vt 0.969096 0.909846
vt 0.886539 0.909846
vt 0.721426 0.909846
vt 0.638869 0.909846
vt 0.803982 0.909846
vt 0.969096 0.867575
vt 0.886539 0.867575
vt 0.721426 0.867575
vt 0.638869 0.867575
vt 0.803982 0.867575
vt 0.969096 0.825305
vt 0.886539 0.825305
vt 0.721426 0.825305
vt 0.638869 0.825305
vt 0.803982 0.825305
vt 0.969096 0.783035
vt 0.886539 0.783035
vt 0.721426 0.783035
vt 0.638869 0.783035
vt 0.803982 0.783035
vt 0.969096 0.713438
vt 0.886539 0.713438
vt 0.721426 0.713438
vt 0.638869 0.713438
vt 0.803982 0.713438
vt 0.969096 0.671167
vt 0.886539 0.671167
vt 0.721426 0.671167
vt 0.638869 0.671167
vt 0.803982 0.671167
vt 0.856539 0.388095
vt 0.861889 0.387826
vt 0.861975 0.379495
vt 0.856592 0.379758
vt 0.856445 0.396387
vt 0.861795 0.396115
vt 0.856343 0.404653
vt 0.861691 0.404377
vt 0.867236 0.387547
vt 0.867323 0.379226
vt 0.867140 0.395832
vt 0.867035 0.404091
vt 0.872579 0.387256
vt 0.872666 0.378945
vt 0.872482 0.395538
vt 0.872375 0.403793
vt 0.877917 0.386954
vt 0.878006 0.378651
vt 0.877819 0.395233
vt 0.877711 0.403484
vt 0.883252 0.386641
vt 0.883342 0.378344
vt 0.883152 0.394915
vt 0.883043 0.403162
vt 0.888582 0.386315
vt 0.888674 0.378024
vt 0.888481 0.394585
vt 0.888370 0.402827
vt 0.893908 0.385976
vt 0.894002 0.377692
vt 0.893805 0.394242
vt 0.893692 0.402479
vt 0.899228 0.385624
vt 0.899325 0.377346
vt 0.899124 0.393885
vt 0.899009 0.402117
vt 0.904544 0.385258
vt 0.904641 0.376983
vt 0.904438 0.393514
vt 0.904321 0.401740
vt 0.909854 0.384877
vt 0.909951 0.376601
vt 0.909746 0.393127
vt 0.909627 0.401347
vt 0.915159 0.384480
vt 0.915253 0.376203
vt 0.915049 0.392725
vt 0.914927 0.400937
vt 0.920458 0.384067
vt 0.920464 0.375799
vt 0.920345 0.392305
vt 0.920221 0.400510
vt 0.836196 0.220523
vt 0.839298 0.233192
vt 0.869617 0.251348
vt 0.868484 0.246996
vt 0.784937 0.229996
vt 0.785215 0.233249
vt 0.748173 0.238844
vt 0.749439 0.241904
vt 0.897470 0.261389
vt 0.899866 0.258040
vt 0.713435 0.260045
vt 0.715608 0.262565
vt 0.920297 0.284795
vt 0.923296 0.282059
vt 0.685439 0.294294
vt 0.688323 0.295916
vt 0.949615 0.322079
vt 0.953377 0.320291
vt 0.675001 0.339465
vt 0.678584 0.340331
vt 0.971952 0.340482
vt 0.975016 0.339088
vt 0.998127 0.340533
vt 0.998001 0.341602
vt 0.845361 0.311612
vt 0.915114 0.372026
vt 0.917453 0.430031
vt 0.843182 0.405742
vt 0.856490 0.201409
vt 0.878920 0.251033
vt 0.684249 0.238383
vt 0.723546 0.213595
vt 0.918717 0.280443
vt 0.651390 0.277315
vt 0.951287 0.323516
vt 0.627900 0.342946
vt 0.973620 0.344682
vt 0.997596 0.345729
vt 0.819230 0.194728
vt 0.764219 0.202412
vt 0.866946 0.273384
vt 0.882825 0.279125
vt 0.898821 0.295562
vt 0.929934 0.335252
vt 0.958703 0.369202
vt 0.833933 0.265293
vt 0.790550 0.267785
vt 0.763027 0.274594
vt 0.739332 0.289112
vt 0.719531 0.313337
vt 0.709667 0.345317
vt 0.708036 0.384869
vt 0.667007 0.380435
vt 0.705645 0.415647
vt 0.664046 0.418519
vt 0.712495 0.449026
vt 0.707442 0.436381
vt 0.733256 0.483951
vt 0.734831 0.482400
vt 0.768408 0.509759
vt 0.784371 0.509557
vt 0.827921 0.525671
vt 0.819239 0.528637
vt 0.887440 0.525993
vt 0.882928 0.536306
vt 0.957774 0.516248
vt 0.998767 0.536927
vt 0.997914 0.358679
vt 0.962635 0.425456
vt 0.799277 0.309738
vt 0.781172 0.314189
vt 0.768889 0.321606
vt 0.757797 0.335501
vt 0.751729 0.356775
vt 0.750782 0.389111
vt 0.748982 0.412243
vt 0.753524 0.434377
vt 0.767321 0.457603
vt 0.790575 0.474763
vt 0.838677 0.488002
vt 0.891824 0.489602
vt 0.918888 0.486734
vt 0.999158 0.516212
vt 0.998605 0.414438
vt 0.777748 0.393691
vt 0.798817 0.397142
vt 0.759015 0.390528
vt 0.681800 0.146485
vt 0.690643 0.087436
vt 0.837592 0.139694
vt 0.759200 0.004202
vt 0.469055 0.146181
vt 0.462335 0.002922
vt 0.547708 0.007792
vt 0.554568 0.151006
vt 0.024187 0.157300
vt 0.022246 0.013710
vt 0.678147 0.014161
vt 0.767562 0.015160
vt 0.182982 0.163077
vt 0.180768 0.019409
vt 0.304080 0.155291
vt 0.301728 0.011585
vt 0.877825 0.444531
vt 0.882474 0.447466
vt 0.881571 0.448555
vt 0.876922 0.445620
vt 0.880783 0.423681
vt 0.885767 0.426866
vt 0.883824 0.428645
vt 0.879159 0.425663
vt 0.887780 0.441437
vt 0.882708 0.438234
vt 0.885148 0.435663
vt 0.889796 0.438600
vt 0.890493 0.428756
vt 0.895566 0.431960
vt 0.893130 0.434542
vt 0.888481 0.431605
vt 0.880268 0.441385
vt 0.885128 0.444455
vt 0.875825 0.429721
vt 0.880490 0.432703
vt 0.897164 0.433519
vt 0.889978 0.442266
vt 0.893138 0.425718
vt 0.895780 0.422674
vt 0.900429 0.425609
vt 0.897998 0.428787
vt 0.879501 0.435085
vt 0.888131 0.427813
vt 0.881105 0.436661
vt 0.898760 0.435074
vt 0.897769 0.437453
vt 0.894436 0.441510
vt 0.892175 0.443090
vt 0.585433 0.220110
vt 0.575364 0.220110
vt 0.583955 0.220110
vt 0.733221 0.335473
vt 0.733339 0.335434
vt 0.733427 0.335403
vt 0.733554 0.335473
vt 0.734125 0.336609
vt 0.732710 0.336461
vt 0.733183 0.335173
vt 0.732725 0.334208
vt 0.734125 0.333942
vt 0.733511 0.335162
vt 0.733418 0.335237
vt 0.733316 0.335216
vt 0.580386 0.220110
vt 0.576842 0.220110
vt 0.625038 0.514650
vt 0.624963 0.516572
vt 0.605042 0.220110
vt 0.605042 0.234949
vt 0.603365 0.222402
vt 0.585433 0.222402
vt 0.576961 0.222402
vt 0.575364 0.234949
vt 0.605042 0.233803
vt 0.621988 0.514215
vt 0.617820 0.507471
vt 0.625893 0.508622
vt 0.625694 0.513711
vt 0.617640 0.512088
vt 0.618789 0.514853
vt 0.619134 0.505991
vt 0.625826 0.506945
vt 0.625511 0.515046
vt 0.620547 0.514009
vt 0.620473 0.515917
vt 0.575364 0.228804
vt 0.575364 0.235932
vt 0.615112 0.513852
vt 0.614828 0.517032
vt 0.610680 0.515677
vt 0.610963 0.512497
vt 0.734419 0.335716
vt 0.734182 0.335335
vt 0.734125 0.334389
vt 0.734356 0.334104
vt 0.734414 0.334561
vt 0.734457 0.335193
vt 0.734637 0.336609
vt 0.734633 0.335347
vt 0.734672 0.334379
vt 0.734481 0.333246
vt 0.734655 0.334086
vt 0.734672 0.335558
vt 0.575364 0.236061
vt 0.615260 0.512190
vt 0.615112 0.513852
vt 0.609580 0.512045
vt 0.609728 0.510383
vt 0.612627 0.507060
vt 0.612757 0.505601
vt 0.615760 0.506581
vt 0.615630 0.508041
vt 0.609858 0.508923
vt 0.610098 0.506234
vt 0.612997 0.502912
vt 0.607095 0.505253
vt 0.607465 0.501105
vt 0.610963 0.512497
vt 0.610724 0.515185
vt 0.607543 0.514146
vt 0.607783 0.511458
vt 0.614698 0.518492
vt 0.611517 0.517453
vt 0.611648 0.515993
vt 0.606577 0.511064
vt 0.606725 0.509402
vt 0.606855 0.507942
vt 0.610724 0.515185
vt 0.610575 0.516847
vt 0.607572 0.515866
vt 0.607721 0.514204
vt 0.605640 0.496505
vt 0.609331 0.491208
vt 0.591181 0.234949
vt 0.585433 0.227093
vt 0.585433 0.227093
vt 0.579959 0.234949
vt 0.609316 0.463333
vt 0.617855 0.479672
vt 0.609317 0.496013
vt 0.600779 0.479673
vt 0.613207 0.496505
vt 0.615613 0.523897
vt 0.621087 0.516040
vt 0.626835 0.523897
vt 0.621087 0.516041
vt 0.734695 0.318529
vt 0.735718 0.318515
vt 0.735416 0.316948
vt 0.735047 0.317009
vt 0.735368 0.315510
vt 0.735312 0.315344
vt 0.735232 0.315391
vt 0.735225 0.315437
vt 0.735113 0.333512
vt 0.735044 0.333602
vt 0.735079 0.336609
vt 0.735401 0.335474
vt 0.734672 0.318459
vt 0.734970 0.316703
vt 0.735759 0.318469
vt 0.735447 0.316721
vt 0.735280 0.334229
vt 0.734969 0.334556
vt 0.735067 0.332827
vt 0.735167 0.332864
vt 0.735092 0.333142
vt 0.735125 0.332408
vt 0.735150 0.333289
vt 0.735061 0.332466
vt 0.734887 0.333909
vt 0.735046 0.333260
vt 0.735145 0.333308
vt 0.735223 0.333459
vt 0.734994 0.333481
vt 0.735006 0.333049
vt 0.735117 0.332839
vt 0.735060 0.332965
vt 0.735125 0.333284
vt 0.735125 0.333293
vt 0.735182 0.333332
vt 0.735200 0.333399
vt 0.735546 0.331912
vt 0.734672 0.331762
vt 0.734699 0.331881
vt 0.735567 0.331732
vt 0.735547 0.313441
vt 0.734989 0.313538
vt 0.735123 0.315345
vt 0.735357 0.314689
vt 0.735139 0.315647
vt 0.735235 0.314488
vt 0.735201 0.313519
vt 0.735057 0.312974
vt 0.735402 0.313640
vt 0.735399 0.313004
vt 0.735181 0.315464
vt 0.735187 0.315390
vt 0.734804 0.308681
vt 0.735320 0.307107
vt 0.735219 0.315398
vt 0.735215 0.315397
vt 0.734780 0.308168
vt 0.735263 0.308877
vt 0.735227 0.315405
vt 0.735211 0.315404
vt 0.520914 0.238291
vt 0.524477 0.238291
vt 0.524477 0.227602
vt 0.520914 0.227602
vt 0.520914 0.206225
vt 0.524477 0.206225
vt 0.524477 0.195536
vt 0.520914 0.195536
vt 0.520914 0.216913
vt 0.524477 0.216913
vt 0.528040 0.238291
vt 0.528040 0.227602
vt 0.528040 0.206225
vt 0.528040 0.195536
vt 0.528040 0.216913
vt 0.531603 0.238291
vt 0.531603 0.227602
vt 0.531603 0.206225
vt 0.531603 0.195536
vt 0.531603 0.216913
vt 0.535166 0.238291
vt 0.535166 0.227602
vt 0.535166 0.206225
vt 0.535166 0.195536
vt 0.535166 0.216913
vt 0.538729 0.238291
vt 0.538729 0.227602
vt 0.538729 0.206225
vt 0.538729 0.195536
vt 0.538729 0.216913
vt 0.542291 0.238291
vt 0.542291 0.227602
vt 0.542291 0.206225
vt 0.542291 0.195536
vt 0.542291 0.216913
vt 0.545854 0.238291
vt 0.545854 0.227602
vt 0.545854 0.206225
vt 0.545854 0.195536
vt 0.545854 0.216913
vt 0.549417 0.238291
vt 0.549417 0.227602
vt 0.549417 0.206225
vt 0.549417 0.195536
vt 0.549417 0.216913
vt 0.552980 0.238291
vt 0.552980 0.227602
vt 0.552980 0.206225
vt 0.552980 0.195536
vt 0.552980 0.216913
vt 0.556543 0.238291
vt 0.556543 0.227602
vt 0.556543 0.206225
vt 0.556543 0.195536
vt 0.556543 0.216913
vt 0.560106 0.238291
vt 0.560106 0.227602
vt 0.560106 0.206225
vt 0.560106 0.195536
vt 0.560106 0.216913
vt 0.563669 0.238291
vt 0.563669 0.227602
vt 0.563669 0.206225
vt 0.563669 0.195536
vt 0.563669 0.216913
s 1
usemtl sfw_3
f 3/1/1 2/2/1 1/3/1 4/4/1
f 7/5/1 8/6/1 5/7/1 6/8/1
usemtl Material.003
f 35/9/2 34/10/3 18/11/4 19/12/5
f 36/13/6 35/9/2 19/12/5 20/14/7
f 37/15/8 36/13/6 20/14/7 21/16/9
f 38/17/10 37/15/8 21/16/9 22/18/11
f 39/19/12 38/17/10 22/18/11 23/20/13
f 9/21/14 39/19/12 23/20/13 10/22/15
f 33/23/16 32/24/17 16/25/18 17/26/19
f 34/10/3 33/23/16 17/26/19 18/11/4
f 21/16/9 20/14/7 28/27/20 29/28/21
f 22/18/11 21/16/9 29/28/21 30/29/22
f 23/20/13 22/18/11 30/29/22 31/30/23
f 23/20/13 31/30/23 41/31/24
f 17/26/19 16/25/18 24/32/25 25/33/26
f 18/11/4 17/26/19 25/33/26 26/34/27
f 19/12/5 18/11/4 26/34/27 27/35/28
f 20/14/7 19/12/5 27/35/28 28/27/20
f 13/36/29 10/22/30 41/31/24
f 13/36/29 41/31/24 43/37/31 15/38/32
f 10/22/30 23/20/13 41/31/24
f 31/30/23 11/39/33 40/40/34
f 11/39/33 12/41/35 40/40/34
f 31/30/23 40/40/34 41/31/24
f 15/38/32 43/37/31 42/42/36 14/43/37
f 40/40/38 12/41/39 14/43/40 42/42/38
f 41/31/24 40/40/34 42/42/41 43/37/41
f 63/9/42 47/12/43 46/11/44 62/10/45
f 64/13/46 48/14/47 47/12/43 63/9/42
f 65/15/48 49/16/49 48/14/47 64/13/46
f 66/17/50 50/18/51 49/16/49 65/15/48
f 67/19/52 51/20/53 50/18/51 66/17/50
f 9/21/14 10/22/15 51/20/53 67/19/52
f 61/23/54 45/26/55 44/25/56 60/24/57
f 62/10/45 46/11/44 45/26/55 61/23/54
f 49/16/49 57/28/58 56/27/59 48/14/47
f 50/18/51 58/29/60 57/28/58 49/16/49
f 51/20/53 59/30/61 58/29/60 50/18/51
f 51/20/53 69/31/62 59/30/61
f 45/26/55 53/33/63 52/32/64 44/25/56
f 46/11/44 54/34/65 53/33/63 45/26/55
f 47/12/43 55/35/66 54/34/65 46/11/44
f 48/14/47 56/27/59 55/35/66 47/12/43
f 13/36/29 69/31/62 10/22/30
f 13/36/29 15/38/32 71/37/67 69/31/62
f 10/22/30 69/31/62 51/20/53
f 59/30/61 68/40/68 11/39/69
f 11/39/69 68/40/68 12/41/70
f 59/30/61 69/31/62 68/40/68
f 15/38/32 14/43/37 70/42/71 71/37/67
f 68/40/72 70/42/72 14/43/40 12/41/39
f 69/31/62 71/37/73 70/42/73 68/40/68
f 72/44/74 76/45/75 79/46/76 75/47/74
f 73/48/77 77/49/78 76/50/79 72/51/77
f 74/52/80 78/53/81 77/49/82 73/48/80
f 75/47/83 79/46/84 78/53/85 74/52/83
f 76/45/75 80/54/86 83/55/87 79/46/76
f 77/49/78 81/56/88 80/57/89 76/50/79
f 78/53/81 82/58/90 81/56/91 77/49/82
f 79/46/84 83/55/92 82/58/93 78/53/85
f 80/54/86 84/59/94 87/60/95 83/55/87
f 81/56/88 85/61/96 84/62/97 80/57/89
f 82/58/90 86/63/98 85/61/99 81/56/91
f 83/55/92 87/60/100 86/63/101 82/58/93
f 84/59/94 88/64/102 91/65/103 87/60/95
f 85/61/96 89/66/104 88/67/105 84/62/97
f 86/63/98 90/68/106 89/66/107 85/61/99
f 87/60/100 91/65/108 90/68/109 86/63/101
f 88/64/102 92/69/110 95/70/111 91/65/103
f 89/66/104 93/71/112 92/72/113 88/67/105
f 90/68/106 94/73/114 93/71/115 89/66/107
f 91/65/108 95/70/116 94/73/117 90/68/109
f 92/69/110 96/74/118 99/75/119 95/70/111
f 93/71/112 97/76/120 96/77/121 92/72/113
f 94/73/114 98/78/122 97/76/122 93/71/115
f 95/70/116 99/75/123 98/78/124 94/73/117
f 96/74/118 100/79/125 103/80/126 99/75/119
f 97/76/120 101/81/127 100/82/128 96/77/121
f 98/78/122 102/83/129 101/81/130 97/76/122
f 99/75/123 103/80/131 102/83/132 98/78/124
f 100/79/125 104/84/133 107/85/134 103/80/126
f 101/81/127 105/86/135 104/87/136 100/82/128
f 102/83/129 106/88/137 105/86/138 101/81/130
f 103/80/131 107/85/139 106/88/140 102/83/132
f 104/84/133 108/89/141 111/90/142 107/85/134
f 105/86/135 109/91/143 108/92/144 104/87/136
f 106/88/137 110/93/145 109/91/146 105/86/138
f 107/85/139 111/90/147 110/93/148 106/88/140
f 108/89/141 112/94/149 115/95/150 111/90/142
f 109/91/143 113/96/151 112/97/152 108/92/144
f 110/93/145 114/98/153 113/96/154 109/91/146
f 111/90/147 115/95/155 114/98/156 110/93/148
f 112/94/149 116/99/157 119/100/158 115/95/150
f 113/96/151 117/101/159 116/102/160 112/97/152
f 114/98/153 118/103/161 117/101/162 113/96/154
f 115/95/155 119/100/163 118/103/164 114/98/156
f 116/99/157 120/104/165 123/105/166 119/100/158
f 117/101/159 121/106/167 120/107/168 116/102/160
f 118/103/161 122/108/169 121/106/169 117/101/162
f 119/100/163 123/105/170 122/108/170 118/103/164
f 75/47/171 74/52/171 73/48/171 72/51/171
f 124/44/172 127/47/172 131/46/173 128/45/174
f 125/48/175 124/51/175 128/50/176 129/49/177
f 126/52/178 125/48/178 129/49/179 130/53/180
f 127/47/181 126/52/181 130/53/182 131/46/183
f 128/45/174 131/46/173 135/55/184 132/54/185
f 129/49/177 128/50/176 132/57/186 133/56/187
f 130/53/180 129/49/179 133/56/188 134/58/189
f 131/46/183 130/53/182 134/58/190 135/55/191
f 132/54/185 135/55/184 139/60/192 136/59/193
f 133/56/187 132/57/186 136/62/194 137/61/195
f 134/58/189 133/56/188 137/61/196 138/63/197
f 135/55/191 134/58/190 138/63/198 139/60/199
f 136/59/193 139/60/192 143/65/200 140/64/201
f 137/61/195 136/62/194 140/67/202 141/66/203
f 138/63/197 137/61/196 141/66/204 142/68/205
f 139/60/199 138/63/198 142/68/206 143/65/207
f 140/64/201 143/65/200 147/70/208 144/69/209
f 141/66/203 140/67/202 144/72/210 145/71/211
f 142/68/205 141/66/204 145/71/212 146/73/213
f 143/65/207 142/68/206 146/73/214 147/70/215
f 144/69/209 147/70/208 151/75/216 148/74/217
f 145/71/211 144/72/210 148/77/218 149/76/219
f 146/73/213 145/71/212 149/76/220 150/78/221
f 147/70/215 146/73/214 150/78/222 151/75/223
f 148/74/217 151/75/216 155/80/224 152/79/225
f 149/76/219 148/77/218 152/82/226 153/81/227
f 150/78/221 149/76/220 153/81/228 154/83/229
f 151/75/223 150/78/222 154/83/230 155/80/231
f 152/79/225 155/80/224 159/85/232 156/84/233
f 153/81/227 152/82/226 156/87/234 157/86/235
f 154/83/229 153/81/228 157/86/236 158/88/237
f 155/80/231 154/83/230 158/88/238 159/85/239
f 156/84/233 159/85/232 163/90/240 160/89/241
f 157/86/235 156/87/234 160/92/242 161/91/243
f 158/88/237 157/86/236 161/91/244 162/93/245
f 159/85/239 158/88/238 162/93/246 163/90/247
f 160/89/241 163/90/240 167/95/248 164/94/249
f 161/91/243 160/92/242 164/97/250 165/96/251
f 162/93/245 161/91/244 165/96/252 166/98/253
f 163/90/247 162/93/246 166/98/254 167/95/255
f 164/94/249 167/95/248 171/100/256 168/99/257
f 165/96/251 164/97/250 168/102/258 169/101/259
f 166/98/253 165/96/252 169/101/260 170/103/261
f 167/95/255 166/98/254 170/103/262 171/100/263
f 168/99/257 171/100/256 123/105/166 120/104/165
f 169/101/259 168/102/258 120/107/168 121/106/167
f 170/103/261 169/101/260 121/106/169 122/108/169
f 171/100/263 170/103/262 122/108/170 123/105/170
f 127/47/264 124/51/264 125/48/264 126/52/264
f 172/109/265 175/110/266 177/111/267 174/112/265
f 173/113/268 176/114/269 175/110/270 172/109/268
f 174/115/271 177/116/272 176/114/273 173/113/271
f 175/110/266 178/117/274 180/118/275 177/111/267
f 176/114/269 179/119/276 178/117/277 175/110/270
f 177/116/272 180/120/278 179/119/279 176/114/273
f 178/117/274 181/121/280 183/122/281 180/118/275
f 179/119/276 182/123/282 181/121/283 178/117/277
f 180/120/278 183/124/284 182/123/285 179/119/279
f 181/121/280 184/125/286 186/126/287 183/122/281
f 182/123/282 185/127/288 184/125/289 181/121/283
f 183/124/284 186/128/290 185/127/291 182/123/285
f 184/125/286 187/129/292 189/130/293 186/126/287
f 185/127/288 188/131/294 187/129/295 184/125/289
f 186/128/290 189/132/296 188/131/297 185/127/291
f 187/129/292 190/133/298 192/134/299 189/130/293
f 188/131/294 191/135/300 190/133/301 187/129/295
f 189/132/296 192/136/302 191/135/303 188/131/297
f 190/133/298 193/137/304 195/138/305 192/134/299
f 191/135/300 194/139/306 193/137/307 190/133/301
f 192/136/302 195/140/308 194/139/309 191/135/303
f 193/137/304 196/141/310 198/142/311 195/138/305
f 194/139/306 197/143/312 196/141/313 193/137/307
f 195/140/308 198/144/314 197/143/315 194/139/309
f 196/141/310 199/145/316 201/146/317 198/142/311
f 197/143/312 200/147/318 199/145/319 196/141/313
f 198/144/314 201/148/320 200/147/321 197/143/315
f 199/145/316 202/149/322 204/150/323 201/146/317
f 200/147/318 203/151/324 202/149/325 199/145/319
f 201/148/320 204/152/326 203/151/327 200/147/321
f 202/149/322 205/153/328 207/154/329 204/150/323
f 203/151/324 206/155/330 205/153/331 202/149/325
f 204/152/326 207/156/332 206/155/333 203/151/327
f 205/153/328 208/157/334 210/158/334 207/154/329
f 206/155/330 209/159/335 208/157/335 205/153/331
f 207/156/332 210/160/336 209/159/336 206/155/333
f 255/161/337 232/162/338 226/163/339 250/164/340
f 256/165/341 233/166/342 232/162/338 255/161/337
f 257/167/343 234/168/344 233/166/342 256/165/341
f 250/164/340 226/163/339 227/169/345 251/170/346
f 258/171/347 235/172/348 234/168/344 257/167/343
f 251/170/346 227/169/345 228/173/349 252/174/350
f 259/175/351 236/176/352 235/172/348 258/171/347
f 252/174/350 228/173/349 229/177/353 253/178/354
f 260/179/355 237/180/356 236/176/352 259/175/351
f 253/178/354 229/177/353 230/181/357 254/182/358
f 254/182/359 230/181/360 231/183/361 212/184/362
f 297/185/363 211/186/364 292/187/365 296/188/366
f 226/163/339 238/189/367 239/190/368 227/169/345
f 235/172/348 247/191/369 246/192/370 234/168/344
f 227/169/345 239/190/368 240/193/371 228/173/349
f 236/176/352 248/194/372 247/191/369 235/172/348
f 228/173/349 240/193/371 241/195/373 229/177/353
f 237/180/356 249/196/374 248/194/372 236/176/352
f 229/177/353 241/195/373 242/197/375 230/181/357
f 230/181/360 242/197/376 243/198/377 231/183/361
f 232/162/338 244/199/378 238/189/367 226/163/339
f 233/166/342 245/200/379 244/199/378 232/162/338
f 234/168/344 246/192/370 245/200/379 233/166/342
f 271/201/380 250/164/381 251/170/382 272/202/383
f 272/202/383 251/170/382 252/174/384 273/203/385
f 273/203/385 252/174/384 253/178/386 274/204/387
f 274/204/387 253/178/386 254/182/388 275/205/389
f 275/205/389 254/182/388 212/184/390
f 276/206/391 255/161/392 250/164/381 271/201/380
f 277/207/393 256/165/394 255/161/392 276/206/391
f 278/208/395 257/167/396 256/165/394 277/207/393
f 279/209/397 258/171/398 257/167/396 278/208/395
f 280/210/399 259/175/400 258/171/398 279/209/397
f 281/211/401 260/179/402 259/175/400 280/210/399
f 282/212/403 261/213/404 260/179/402 281/211/401
f 283/214/405 262/215/406 261/213/404 282/212/403
f 284/216/407 263/217/408 262/215/406 283/214/405
f 285/218/409 264/219/410 263/217/408 284/216/407
f 286/220/411 265/221/412 264/219/410 285/218/409
f 287/222/413 266/223/414 265/221/412 286/220/411
f 288/224/415 267/225/416 266/223/414 287/222/413
f 270/226/417 225/227/418 267/225/416 288/224/415
f 275/205/389 212/184/390 269/228/419
f 211/186/364 275/205/389 291/229/420 292/187/365
f 297/185/363 271/201/380 272/202/383 211/186/364
f 211/186/364 272/202/383 273/203/385
f 211/186/364 273/203/385 274/204/387
f 211/186/364 274/204/387 275/205/389
f 297/185/363 276/206/391 271/201/380
f 213/230/421 277/207/393 276/206/391 297/185/363
f 214/231/422 278/208/395 277/207/393 213/230/421
f 215/232/423 279/209/397 278/208/395 214/231/422
f 216/233/424 280/210/399 279/209/397 215/232/423
f 217/234/425 281/211/401 280/210/399 216/233/424
f 218/235/426 282/212/403 281/211/401 217/234/425
f 219/236/427 283/214/405 282/212/403 218/235/426
f 220/237/428 284/216/407 283/214/405 219/236/427
f 221/238/429 285/218/409 284/216/407 220/237/428
f 222/239/430 286/220/411 285/218/409 221/238/429
f 223/240/431 287/222/413 286/220/411 222/239/430
f 224/241/432 288/224/415 287/222/413 223/240/431
f 268/242/433 270/226/417 288/224/415 224/241/432
f 289/243/434 225/227/418 270/226/417
f 269/228/419 290/244/435 291/229/420 275/205/389
f 290/244/435 289/243/434 270/226/417 291/229/420
f 291/229/420 270/226/417 268/242/433 292/187/365
f 292/187/365 268/242/433 224/241/432 223/240/431 296/188/366
f 222/239/430 221/238/429 294/245/436 293/246/437
f 221/238/429 220/237/428 295/247/438 294/245/436
f 220/237/428 219/236/427 218/235/426 295/247/438
f 293/246/437 294/245/436 214/231/422 213/230/421
f 294/245/436 295/247/438 216/233/424 215/232/423 214/231/422
f 295/247/438 218/235/426 217/234/425 216/233/424
f 223/240/431 222/239/430 293/246/437 296/188/366
f 296/188/366 293/246/437 213/230/421 297/185/363
f 302/248/439 309/249/440 308/250/441 300/251/442
f 298/252/443 299/253/444 304/254/445 303/255/446
f 303/255/446 304/254/445 309/249/440
f 299/253/444 298/252/443 306/256/447 307/257/448
f 309/249/440 304/254/445 305/258/449
f 309/249/440 302/248/439 303/255/446
f 308/250/441 309/249/440 305/258/449 301/259/450
f 307/257/448 306/256/447 310/260/451 311/261/451
f 311/261/452 310/260/452 312/262/452 313/263/452
f 317/264/453 315/265/453 314/266/453 318/267/453
f 316/268/454 319/269/454 429/270/454 428/271/454
f 320/272/455 323/273/455 322/274/455 426/275/455
f 324/276/456 321/277/456 427/278/456 325/279/456
f 317/264/457 329/280/457 328/281/457 315/265/457
f 314/282/458 428/271/458 429/270/458 318/283/458
f 320/272/459 426/275/459 427/278/459 321/277/459 326/284/459 328/285/459
f 327/286/460 319/287/460 316/288/460 326/289/460
f 317/290/461 318/283/461 429/270/461 319/269/461 327/291/461 329/292/461
f 322/274/462 325/279/462 427/278/462 426/275/462
f 324/276/460 327/286/460 326/289/460 321/277/460
f 329/292/463 327/291/463 324/276/463 325/279/463 322/274/463 323/273/463
f 328/285/464 326/284/464 316/293/464 428/294/464 314/295/464 315/296/464
f 328/281/457 329/280/457 323/273/457 320/272/457
f 370/161/465 365/164/466 343/163/467 348/162/468
f 371/165/469 370/161/465 348/162/468 349/166/470
f 372/167/471 371/165/469 349/166/470 350/168/472
f 365/164/466 366/170/473 344/169/474 343/163/467
f 373/171/475 372/167/471 350/168/472 351/172/476
f 366/170/473 367/174/477 345/173/478 344/169/474
f 374/175/479 373/171/475 351/172/476 352/176/480
f 367/174/477 368/178/481 346/177/482 345/173/478
f 375/179/483 374/175/479 352/176/480 353/180/484
f 368/178/481 369/182/485 347/181/486 346/177/482
f 369/182/487 212/184/362 231/183/361 347/181/488
f 409/185/489 408/188/490 404/187/491 330/186/492
f 343/163/467 344/169/474 355/190/493 354/189/494
f 351/172/476 350/168/472 361/192/495 362/191/496
f 344/169/474 345/173/478 356/193/497 355/190/493
f 352/176/480 351/172/476 362/191/496 363/194/498
f 345/173/478 346/177/482 357/195/499 356/193/497
f 353/180/484 352/176/480 363/194/498 364/196/500
f 346/177/482 347/181/486 358/197/501 357/195/499
f 347/181/488 231/183/361 243/198/377 358/197/502
f 348/162/468 343/163/467 354/189/494 359/199/503
f 349/166/470 348/162/468 359/199/503 360/200/504
f 350/168/472 349/166/470 360/200/504 361/192/495
f 385/201/505 386/202/506 366/170/507 365/164/508
f 386/202/506 387/203/509 367/174/510 366/170/507
f 387/203/509 388/204/511 368/178/512 367/174/510
f 388/204/511 389/205/513 369/182/514 368/178/512
f 389/205/513 212/184/390 369/182/514
f 390/206/515 385/201/505 365/164/508 370/161/516
f 391/207/517 390/206/515 370/161/516 371/165/518
f 392/208/519 391/207/517 371/165/518 372/167/520
f 393/209/521 392/208/519 372/167/520 373/171/522
f 394/210/523 393/209/521 373/171/522 374/175/524
f 395/211/525 394/210/523 374/175/524 375/179/526
f 396/212/527 395/211/525 375/179/526 376/213/528
f 397/214/529 396/212/527 376/213/528 377/215/530
f 398/216/531 397/214/529 377/215/530 378/217/532
f 399/218/533 398/216/531 378/217/532 379/219/534
f 400/220/535 399/218/533 379/219/534 380/221/536
f 401/222/537 400/220/535 380/221/536 381/223/538
f 402/224/539 401/222/537 381/223/538 382/225/540
f 384/226/541 402/224/539 382/225/540 225/227/418
f 389/205/513 269/228/419 212/184/390
f 330/186/492 404/187/491 403/229/542 389/205/513
f 409/185/489 330/186/492 386/202/506 385/201/505
f 330/186/492 387/203/509 386/202/506
f 330/186/492 388/204/511 387/203/509
f 330/186/492 389/205/513 388/204/511
f 409/185/489 385/201/505 390/206/515
f 331/230/543 409/185/489 390/206/515 391/207/517
f 332/231/544 331/230/543 391/207/517 392/208/519
f 333/232/545 332/231/544 392/208/519 393/209/521
f 334/233/546 333/232/545 393/209/521 394/210/523
f 335/234/547 334/233/546 394/210/523 395/211/525
f 336/235/548 335/234/547 395/211/525 396/212/527
f 337/236/549 336/235/548 396/212/527 397/214/529
f 338/237/550 337/236/549 397/214/529 398/216/531
f 339/238/551 338/237/550 398/216/531 399/218/533
f 340/239/552 339/238/551 399/218/533 400/220/535
f 341/240/553 340/239/552 400/220/535 401/222/537
f 342/241/554 341/240/553 401/222/537 402/224/539
f 383/242/555 342/241/554 402/224/539 384/226/541
f 289/243/434 384/226/541 225/227/418
f 269/228/419 389/205/513 403/229/542 290/244/435
f 290/244/435 403/229/542 384/226/541 289/243/434
f 403/229/542 404/187/491 383/242/555 384/226/541
f 404/187/491 408/188/490 341/240/553 342/241/554 383/242/555
f 340/239/552 405/246/556 406/245/557 339/238/551
f 339/238/551 406/245/557 407/247/558 338/237/550
f 338/237/550 407/247/558 336/235/548 337/236/549
f 405/246/556 331/230/543 332/231/544 406/245/557
f 406/245/557 332/231/544 333/232/545 334/233/546 407/247/558
f 407/247/558 334/233/546 335/234/547 336/235/548
f 341/240/553 408/188/490 405/246/556 340/239/552
f 408/188/490 409/185/489 331/230/543 405/246/556
f 414/248/559 412/251/559 420/250/560 421/249/561
f 410/252/562 415/255/563 416/254/564 411/253/565
f 415/255/563 421/249/561 416/254/564
f 411/253/565 419/257/566 418/256/567 410/252/562
f 421/249/561 417/258/568 416/254/564
f 421/249/561 415/255/563 414/248/569
f 420/250/560 413/259/570 417/258/568 421/249/561
f 419/257/566 423/261/571 422/260/571 418/256/567
f 423/261/572 425/263/572 424/262/572 422/260/572
